<svg xmlns="http://www.w3.org/2000/svg" viewBox="0 0 1600 1600">
    <path d="M800 1467q42 0 82-4l-82-158-81 158q39 4 81 4m-66-504h-1q-102 19-188 91l32 27q31 25 65 42 35 18 50 22l7 5q3 4 3 8v105l-2 6-89 173q39 11 79 17l96-186v-101q0-5 4-9t10-4q31 0 61-5 51-8 97-31 49-24 91-65-53-45-109-71-37-18-75-25h-1q-31-6-63-6-34 1-67 7m63-415h-1q-18 1-30 14l-1 1-1 1q-12 13-12 31 0 20 14 33 13 14 33 14 19 0 33-14 14-13 14-33 0-19-14-33t-33-14h-2M513 438h-1q-20 16-39 35-87 87-118 197h81q27-79 91-143 16-16 33-29 33-27 69-45l-31-70q-45 22-85 55m1060 362q0-320-226-547Q1120 27 800 27T253 253Q27 480 27 800t226 547q131 131 293 186h1q118 40 253 40t254-40q162-55 293-186 226-227 226-547m-543-546q102 44 187 128 173 173 173 418 0 182-95 324-3 5-9 6-5 1-10-2-5-4-6-9t2-10q92-136 91-309 0-234-165-399-76-76-166-117l-29 69q77 36 143 101 116 117 138 273 1 5-3 10-3 4-8 5-6 1-10-2-5-4-6-9-20-148-130-258-67-66-147-100-83-35-180-35-96 0-178 34l32 70q67-28 146-28 81 0 150 30 64 26 118 78v1l5 4q80 81 103 185 2 6-1 10-3 5-9 6-5 2-10-1t-6-9q-19-86-80-154-17 118-194 192l5 182q36 8 70 24h1q60 28 116 77 18-21 33-43 44-65 55-144l3-40-186 1 10 64 83 10q5 0 8 5 4 4 3 10 0 5-5 9-4 3-9 2l-93-10-8-4q-3-3-4-7l-14-90 1-8 5-5q4-3 8-3l214-1q6 0 10 4t4 10v1q0 28-4 55-11 86-59 156-19 29-45 56l-3 3-2 2v1q-48 47-103 74-50 25-105 34-26 4-52 4v86l97 188q41-6 79-17l-89-173q-2-4-1-8 0-4 3-7t7-4q49-11 94-33 67-33 124-90l2-3q34-34 59-71 56-84 70-186 1-5 5-9 4-3 10-3 5 1 9 6 3 4 2 10-14 108-74 197-27 40-62 76h-1l-1 2q-61 60-131 95-40 19-83 31l89 172 1 7q0 4-3 7l-6 5q-52 16-108 24h-2q-50 7-103 7t-103-7h-2q-55-8-107-24-4-1-7-5l-3-7q0-4 2-7l95-184v-92l-45-21q-37-18-70-45l-44-37h-1q-60-53-95-152-2-4-1-8l5-7q3-3 7-3l186-17 10-64-289-1q5 183 135 314 19 19 40 36 39 31 83 53 5 3 7 8t0 10l-91 185q-2 5-7 7-6 2-11-1-65-32-125-80-31-25-60-54-203-204-203-491t203-491q94-93 205-144 131-59 286-59 287 0 491 203 203 204 203 491t-203 491q-86 85-186 135-5 2-10 0t-8-7l-45-93q-3-5-1-10 2-6 7-8 81-40 150-110l3-2q4-4 9-4 6 0 10 4t4 9q0 6-4 10l-3 2q-67 68-146 109l34 69q90-46 167-123 195-196 195-472t-195-472q-196-195-472-195-149 0-275 57-107 48-197 138-195 196-195 472t195 472q28 28 58 52 52 42 108 71l79-161q-40-21-77-50v-1q-22-17-42-37-143-143-143-346 0-6 4-10t10-4l317 1q4 0 8 3l5 5 1 8-14 90q-1 4-4 7-4 4-8 4l-179 16q29 73 74 116 88-75 192-97l5-181q-100-21-164-109-3-4-3-9 0-4 3-8 53-63 127-90 50-19 109-20h1l2-1h2q30 0 52 22t22 52q0 31-22 52-22 22-52 22-31 0-52-22-22-21-22-52 0-22 12-40-22 4-42 12-63 23-109 74 60 77 152 93 5 1 9 5 3 3 3 8l-6 187q28-4 57-5 26 0 53 4l-5-186q0-4 3-7 2-4 6-5 183-75 187-197-48-46-105-70-65-27-140-27-80 0-146 30l-3 1q-39 18-74 47-16 12-31 27-63 63-88 142-1 4-5 7-3 2-8 2H338l-8-2q-3-2-5-6v-8q30-128 129-227l31-29-46-58-38 34Q237 566 237 800q0 233 164 398 24 24 49 44 4 4 5 9 1 6-3 10-3 4-9 5-5 1-10-3-26-21-51-46-172-173-172-417 0-245 172-418h1q22-22 45-41 1-3 4-4 4-4 10-3 5 0 9 5v1h1l54 68q44-33 93-55l1-1q92-41 200-41 96 0 178 32l29-69q-96-38-207-37-126-1-232 48-5 2-10 0t-8-7q-2-5 0-10 2-6 7-8 111-50 243-50 124 0 230 44m336-20q234 235 234 566t-234 566q-136 135-304 192-122 42-262 42t-262-42q-168-57-304-192Q0 1131 0 800t234-566Q469 0 800 0t566 234"/>
</svg>